{"title":"Kennedy.2015.10.07.WS.SDTV.x264-XAiO","uid":12639960,"size":264729104,"categoryP":"video","categoryS":"tv_shows","magnet":"?xt=urn:btih:4363bd9eea7f3f050cfa324212d1ca916a3554bc&amp;dn=Kennedy.2015.10.07.WS.SDTV.x264-XAiO&amp;tr=udp%3A%2F%2Ftracker.leechers-paradise.org%3A6969&amp;tr=udp%3A%2F%2Fzer0day.ch%3A1337&amp;tr=udp%3A%2F%2Fopen.demonii.com%3A1337&amp;tr=udp%3A%2F%2Ftracker.coppersurfer.tk%3A6969&amp;tr=udp%3A%2F%2Fexodus.desync.com%3A6969","seeders":0,"leechers":0,"uploader":"Reive","files":1,"time":1445978490,"description":"&quot;Kennedy&quot; is a news panel show hosted by Kennedy Montgomery. Kennedy Montgomery is a libertarian that you may recognize from 90's MTV, Stossel, and the Independents.\r\n\r\n_,-'2_,-'2_,-'2_,-'2_,-'2_,-'2_,-'2_,-'2_,-'2_,-'2\r\n\r\nKennedy kicks the night off talking about presidential potentials and how they would do against each other in the general election.\r\n\r\nDAGEN McDOWELL, ANTHONY CUMIA, and JULIE BANDERAS. First topic - Carson the quiet warrior. As of now Carson seems to come out on top in a general election when pitted against Hillary. Bill Clinton hits the campaign trail. He had some interesting words for Trump and Sanders on the Colbert Show.\r\n\r\nJUDGE ANDREW NAPOLITANO is here to once again discuss the never ending saga that is Hillary Clinton's email server scandal. It's looking like the FBI may have discovered some incriminating emails - atleast that's what Napolitano thinks.\r\n\r\nGREG GUTFELD is here to talk about public schools and recess consultants. \r\n\r\nNirvana bassist KRIST NOVOSELIC is here to talk about his non-profit Fair Vote which advocates for electoral reform like run off voting and proportional representation\r\n\r\nThe panel is back to talk about a recent study showing that Americans don't get enough sleep - the panel discusses. Scientists have found that males who admit to having a short fuse live shorter lives.\r\n\r\nNightcap: Sext and the city. \r\n\r\n_,-'2_,-'2_,-'2_,-'2_,-'2_,-'2_,-'2_,-'2_,-'2_,-'2\r\n\r\nGeneral\r\nComplete name : Kennedy.2015.10.07.WS.SDTV.x264-XAiO.mp4\r\nFormat : MPEG-4\r\nFormat profile : Base Media\r\nCodec ID : isom\r\nFile size : 252 MiB\r\nDuration : 42mn 4s\r\nOverall bit rate : 839 Kbps\r\nWriting application : Lavf56.25.101\r\n\r\nVideo\r\nID : 1\r\nFormat : AVC\r\nFormat/Info : Advanced Video Codec\r\nFormat profile :   \r\nFormat settings, CABAC : Yes\r\nFormat settings, ReFrames : 4 frames\r\nCodec ID : avc1\r\nCodec ID/Info : Advanced Video Coding\r\nDuration : 42mn 4s\r\nBit rate : 700 Kbps\r\nWidth : 624 pixels\r\nHeight : 352 pixels\r\nDisplay aspect ratio : 16:9\r\nFrame rate mode : Variable\r\nFrame rate : 29.970 fps\r\nMinimum frame rate : 9.990 fps\r\nMaximum frame rate : 29.970 fps\r\nColor space : YUV\r\nChroma subsampling : 4:2:0\r\nBit depth : 8 bits\r\nScan type : Progressive\r\nBits/(Pixel*Frame) : 0.106\r\nStream size : 211 MiB (83%)\r\nWriting library : x264 core 142 r2389 956c8d8\r\nEncoding settings : cabac=1 / ref=3 / deblock=1:0:0 / analyse=0x3:0x133 / me=hex / subme=7 / psy=1 / psy_rd=1.00:0.00 / mixed_ref=1 / me_range=16 / chroma_me=1 / trellis=1 / 8x8dct=1 / cqm=0 / deadzone=21,11 / fast_pskip=1 / chroma_qp_offset=-2 / threads=6 / lookahead_threads=1 / sliced_threads=0 / nr=0 / decimate=1 / interlaced=0 / bluray_compat=0 / constrained_intra=0 / bframes=3 / b_pyramid=2 / b_adapt=1 / b_bias=0 / direct=1 / weightb=1 / open_gop=0 / weightp=2 / keyint=250 / keyint_min=25 / scenecut=40 / intra_refresh=0 / rc_lookahead=40 / rc=2pass / mbtree=1 / bitrate=700 / ratetol=1.0 / qcomp=0.60 / qpmin=10 / qpmax=51 / qpstep=4 / cplxblur=20.0 / qblur=0.5 / ip_ratio=1.40 / aq=1:1.00\r\n\r\nAudio\r\nID : 2\r\nFormat : AAC\r\nFormat/Info : Advanced Audio Codec\r\nFormat profile : LC\r\nCodec ID : 40\r\nDuration : 42mn 4s\r\nBit rate mode : Constant\r\nBit rate : 128 Kbps\r\nChannel(s) : 2 channels\r\nChannel positions : Front: L R\r\nSampling rate : 48.0 KHz\r\nCompression mode : Lossy\r\nStream size : 38.5 MiB (15%)\r\nLanguage : unk","torrent":{"xt":"urn:btih:4363bd9eea7f3f050cfa324212d1ca916a3554bc","amp;dn":"Kennedy.2015.10.07.WS.SDTV.x264-XAiO","amp;tr":["udp%3A%2F%2Ftracker.leechers-paradise.org%3A6969","udp%3A%2F%2Fzer0day.ch%3A1337","udp%3A%2F%2Fopen.demonii.com%3A1337","udp%3A%2F%2Ftracker.coppersurfer.tk%3A6969","udp%3A%2F%2Fexodus.desync.com%3A6969"],"infoHash":"4363bd9eea7f3f050cfa324212d1ca916a3554bc","infoHashBuffer":{"type":"Buffer","data":[67,99,189,158,234,127,63,5,12,250,50,66,18,209,202,145,106,53,84,188]},"announce":[],"urlList":[]}}